<svg width="45" height="45" viewBox="0 0 45 45" fill="none" xmlns="http://www.w3.org/2000/svg">
<path fill-rule="evenodd" clip-rule="evenodd" d="M39.0521 28.1091C39.1257 28.4904 38.8762 28.8591 38.4948 28.9326L35.3253 29.5438L36.0847 32.3778C36.1852 32.7529 35.9626 33.1385 35.5875 33.239C35.2124 33.3395 34.8269 33.1169 34.7264 32.7418L33.7716 29.1784C33.721 28.9898 33.7512 28.7888 33.8547 28.6233C33.9583 28.4579 34.1259 28.3429 34.3176 28.306L38.2286 27.5518C38.6099 27.4783 38.9786 27.7278 39.0521 28.1091Z" fill="#75C4FE"/>
<path fill-rule="evenodd" clip-rule="evenodd" d="M10.9746 14.8684C11.066 15.2095 10.8902 15.5655 10.5637 15.7003L7.52163 16.9561C7.16269 17.1043 6.75159 16.9334 6.60341 16.5745C6.45524 16.2155 6.6261 15.8044 6.98504 15.6562L9.45648 14.636L8.73489 11.943C8.63439 11.5679 8.85699 11.1824 9.23208 11.0819C9.60717 10.9814 9.99272 11.2039 10.0932 11.579L10.9746 14.8684Z" fill="#75C4FE"/>
<path fill-rule="evenodd" clip-rule="evenodd" d="M35.9245 11.0727C36.291 11.201 36.4841 11.6021 36.3557 11.9687L35.2889 15.0152L38.1201 15.7851C38.4948 15.887 38.716 16.2734 38.6141 16.6481C38.5122 17.0228 38.1258 17.244 37.7511 17.1421L34.1912 16.174C34.0029 16.1228 33.8443 15.9955 33.7534 15.8228C33.6626 15.6501 33.6476 15.4473 33.7121 15.2631L35.0285 11.5039C35.1568 11.1374 35.558 10.9443 35.9245 11.0727Z" fill="#75C4FE"/>
<path fill-rule="evenodd" clip-rule="evenodd" d="M10.3532 28.673C10.694 28.7657 10.9132 29.0968 10.8653 29.4467L10.4197 32.7075C10.3671 33.0922 10.0126 33.3615 9.62784 33.3089C9.24309 33.2563 8.97382 32.9018 9.0264 32.5171L9.38844 29.8679L6.69816 29.1363C6.32344 29.0344 6.10228 28.6481 6.20418 28.2733C6.30609 27.8986 6.69246 27.6775 7.06718 27.7794L10.3532 28.673Z" fill="#75C4FE"/>
<path fill-rule="evenodd" clip-rule="evenodd" d="M19.5009 5.22526C19.7943 4.97093 20.2384 5.00265 20.4927 5.2961L22.6068 7.73539L24.6814 5.66074C24.956 5.38616 25.4012 5.38616 25.6758 5.66074C25.9504 5.93533 25.9504 6.38053 25.6758 6.65511L23.0672 9.26373C22.9292 9.40174 22.74 9.47618 22.5449 9.46922C22.3499 9.46226 22.1665 9.37454 22.0386 9.22704L19.43 6.2171C19.1757 5.92365 19.2074 5.47959 19.5009 5.22526Z" fill="#75C4FE"/>
<path fill-rule="evenodd" clip-rule="evenodd" d="M22.0728 36.1615C22.3225 35.9118 22.7187 35.8861 22.9987 36.1014L25.6073 38.108C25.9151 38.3448 25.9727 38.7862 25.7359 39.094C25.4991 39.4018 25.0577 39.4594 24.7499 39.2226L22.6306 37.5924L20.6592 39.5638C20.3846 39.8384 19.9394 39.8384 19.6648 39.5638C19.3902 39.2892 19.3902 38.8441 19.6648 38.5695L22.0728 36.1615Z" fill="#75C4FE"/>
<path fill-rule="evenodd" clip-rule="evenodd" d="M39.6069 31.9735C39.348 32.4219 38.7747 32.5756 38.3263 32.3167L6.17716 13.7554C5.72876 13.4965 5.57513 12.9231 5.83401 12.4747C6.0929 12.0263 6.66626 11.8727 7.11466 12.1316L39.2638 30.6929C39.7122 30.9518 39.8658 31.5251 39.6069 31.9735Z" fill="#43AEFC"/>
<path fill-rule="evenodd" clip-rule="evenodd" d="M37.9923 24.8948C38.1608 25.3843 37.9005 25.9178 37.4109 26.0863L32.3441 27.8301L32.9735 33.0546C33.0354 33.5687 32.6689 34.0356 32.1549 34.0976C31.6408 34.1595 31.1739 33.793 31.112 33.2789L30.3919 27.3023C30.339 26.8635 30.5997 26.4475 31.0176 26.3037L36.8008 24.3134C37.2904 24.1449 37.8238 24.4052 37.9923 24.8948Z" fill="#43AEFC"/>
<path fill-rule="evenodd" clip-rule="evenodd" d="M15.0469 17.1261C15.1066 17.5484 14.8737 17.9577 14.4803 18.1222L9.5929 20.1663C9.11522 20.3661 8.56604 20.1408 8.36627 19.6631C8.16649 19.1854 8.39177 18.6363 8.86944 18.4365L13.089 16.6718L12.3699 11.5857C12.2974 11.073 12.6543 10.5987 13.167 10.5262C13.6796 10.4537 14.154 10.8106 14.2265 11.3232L15.0469 17.1261Z" fill="#43AEFC"/>
<path fill-rule="evenodd" clip-rule="evenodd" d="M39.5434 12.5374C39.8006 12.9868 39.6449 13.5595 39.1955 13.8168L6.97748 32.2581C6.52812 32.5153 5.95533 32.3596 5.69811 31.9102C5.4409 31.4609 5.59667 30.8881 6.04603 30.6309L38.2641 12.1895C38.7134 11.9323 39.2862 12.088 39.5434 12.5374Z" fill="#43AEFC"/>
<path fill-rule="evenodd" clip-rule="evenodd" d="M32.6141 10.3708C33.122 10.4716 33.452 10.965 33.3512 11.4728L32.3083 16.7289L37.1399 18.8141C37.6153 19.0193 37.8344 19.5709 37.6292 20.0463C37.424 20.5217 36.8723 20.7408 36.397 20.5356L30.8698 18.1503C30.4641 17.9752 30.2357 17.5405 30.3217 17.1071L31.5121 11.1079C31.6128 10.6 32.1062 10.27 32.6141 10.3708Z" fill="#43AEFC"/>
<path fill-rule="evenodd" clip-rule="evenodd" d="M14.354 26.29C14.7489 26.4509 14.9855 26.858 14.9297 27.2808L14.2367 32.5329C14.1689 33.0463 13.6979 33.4075 13.1846 33.3397C12.6712 33.272 12.31 32.8009 12.3778 32.2876L12.9761 27.7532L8.21914 25.8152C7.73964 25.6198 7.50929 25.0728 7.70465 24.5933C7.9 24.1138 8.44707 23.8834 8.92657 24.0788L14.354 26.29Z" fill="#43AEFC"/>
<path fill-rule="evenodd" clip-rule="evenodd" d="M22.57 2.8125C23.0877 2.8125 23.5075 3.23223 23.5075 3.75V40.8726C23.5075 41.3903 23.0877 41.8101 22.57 41.8101C22.0522 41.8101 21.6325 41.3903 21.6325 40.8726V3.75C21.6325 3.23223 22.0522 2.8125 22.57 2.8125Z" fill="#43AEFC"/>
<path fill-rule="evenodd" clip-rule="evenodd" d="M17.2473 7.75008C17.587 7.35937 18.1792 7.31806 18.5699 7.65781L22.6135 11.174L26.8233 8.01657C27.2376 7.70591 27.8252 7.78986 28.1358 8.20407C28.4465 8.61829 28.3626 9.20591 27.9483 9.51657L23.1324 13.1285C22.7789 13.3936 22.2882 13.3759 21.9548 13.0859L17.3395 9.07269C16.9488 8.73294 16.9075 8.14079 17.2473 7.75008Z" fill="#43AEFC"/>
<path fill-rule="evenodd" clip-rule="evenodd" d="M21.9921 31.5057C22.328 31.2429 22.7989 31.2399 23.1381 31.4983L27.352 34.7089C27.7639 35.0227 27.8434 35.6109 27.5296 36.0228C27.2158 36.4346 26.6275 36.5141 26.2157 36.2003L22.5776 33.4285L18.5325 36.5942C18.1247 36.9133 17.5355 36.8415 17.2164 36.4337C16.8973 36.026 16.9692 35.4368 17.3769 35.1177L21.9921 31.5057Z" fill="#43AEFC"/>
<path fill-rule="evenodd" clip-rule="evenodd" d="M17.058 12.9873C17.3113 12.8296 17.6245 12.8019 17.9016 12.9128L22.6158 14.7985L27.7215 13.2857C27.978 13.2097 28.2547 13.2469 28.4821 13.3879C28.7094 13.5289 28.8656 13.7603 28.9115 14.0239L29.6607 18.3321L33.0461 21.5295C33.2368 21.7096 33.3434 21.9614 33.3398 22.2237C33.3363 22.486 33.223 22.7348 33.0275 22.9097L29.4295 26.129L28.0947 31.4682C28.0279 31.7356 27.8468 31.96 27.5996 32.0818C27.3524 32.2036 27.0641 32.2105 26.8114 32.1006L22.5197 30.2346L17.8391 31.7324C17.566 31.8198 17.268 31.7774 17.0301 31.6174C16.7922 31.4574 16.6406 31.1973 16.6186 30.9114L16.2536 26.1663L11.8393 23.4074C11.5771 23.2435 11.4126 22.961 11.3995 22.6521C11.3864 22.3433 11.5264 22.0478 11.7737 21.8624L16.2499 18.5052L16.6186 13.7113C16.6415 13.4138 16.8047 13.145 17.058 12.9873ZM18.3902 15.1277L18.0868 19.0723C18.0661 19.3414 17.9304 19.5885 17.7146 19.7504L13.9925 22.542L17.6489 24.8273C17.9014 24.9851 18.064 25.2535 18.0868 25.5504L18.3972 29.5852L22.2842 28.3413C22.5008 28.272 22.7352 28.2838 22.9437 28.3745L26.5441 29.9398L27.6803 25.3949C27.7258 25.2129 27.8249 25.0487 27.9647 24.9236L31.0173 22.1924L28.1468 19.4813C27.9997 19.3424 27.9015 19.1597 27.8668 18.9604L27.2446 15.3825L22.8363 16.6887C22.6341 16.7486 22.4176 16.7386 22.2218 16.6603L18.3902 15.1277Z" fill="#43AEFC"/>
<path fill-rule="evenodd" clip-rule="evenodd" d="M22.5535 15.0869C22.8198 15.0806 23.0668 15.2254 23.1914 15.4608L24.7774 18.4565L28.5232 18.0998C28.7831 18.075 29.0353 18.1963 29.1783 18.4148C29.3212 18.6333 29.3313 18.913 29.2045 19.1412L27.4061 22.3784L29.1749 25.0316C29.3187 25.2473 29.3322 25.5247 29.2098 25.7534C29.0874 25.982 28.8492 26.1247 28.5899 26.1247H24.8209L23.2054 29.5352C23.089 29.781 22.8412 29.9377 22.5691 29.9373C22.2971 29.937 22.0496 29.7797 21.9338 29.5336L20.496 26.4783L17.2751 26.1204C17.0312 26.0933 16.8191 25.941 16.7154 25.7186C16.6118 25.4961 16.6316 25.2358 16.7677 25.0316L18.5143 22.4117L16.3664 19.1898C16.2156 18.9635 16.2087 18.6706 16.3488 18.4375C16.4889 18.2044 16.7508 18.073 17.0214 18.1001L20.5401 18.452L21.9338 15.4904C22.0472 15.2494 22.2871 15.0931 22.5535 15.0869ZM22.607 17.3625L21.6009 19.5004C21.4741 19.77 21.1911 19.9303 20.8947 19.9007L18.3616 19.6474L19.9444 22.0216C20.1019 22.2578 20.1019 22.5655 19.9444 22.8017L18.5787 24.8504L21.0423 25.1241C21.2853 25.1511 21.4968 25.3023 21.6009 25.5235L22.5721 27.5873L23.7405 25.1206C23.8568 24.875 24.1042 24.7185 24.376 24.7185H27.2761L25.9982 22.8017C25.8522 22.5826 25.8408 22.3003 25.9686 22.0702L27.3263 19.6264L24.4426 19.901C24.1593 19.928 23.8877 19.7816 23.7545 19.53L22.607 17.3625Z" fill="#75C4FE"/>
</svg>
