<svg width="24" height="18" viewBox="0 0 24 18" fill="none" xmlns="http://www.w3.org/2000/svg">
<g clip-path="url(#clip0_1_6574)">
<path d="M21.7142 0H2.28565C1.02329 0 -6.10352e-05 1.07452 -6.10352e-05 2.4V15.6C-6.10352e-05 16.9255 1.02329 18 2.28565 18H21.7142C22.9766 18 23.9999 16.9255 23.9999 15.6V2.4C23.9999 1.07452 22.9766 0 21.7142 0Z" fill="white"/>
<path d="M11.9184 14.3848H11.3719L11.5085 12.3113C11.5008 12.2021 11.4455 12.1734 11.2352 12.1817L9.04931 12.4409C9.04931 12.4409 9.45918 11.9226 9.45918 11.6634C9.45918 11.4042 7 9.71947 7 9.71947C7 9.71947 7.54648 9.58987 7.6831 9.46028C7.81973 9.33069 7.13662 7.90516 7.13662 7.90516C7.13662 7.90516 8.525 8.42353 8.63945 8.29394C8.7539 8.16435 8.91269 7.64597 8.91269 7.64597C8.91269 7.64597 10.0057 8.81231 10.2789 8.81231C10.5521 8.81231 9.73242 5.96126 9.73242 5.96126C9.73242 5.96126 10.4155 6.47963 10.6888 6.47963C10.962 6.47963 11.6451 4.79492 11.6451 4.79492C11.6451 4.79492 12.3282 6.47963 12.4648 6.47963C12.6015 6.47963 13.5578 5.96126 13.5578 5.96126C13.5578 5.96126 12.8747 8.68272 13.0113 8.81231C13.1479 8.94191 14.3775 7.64597 14.3775 7.64597C14.3775 7.64597 14.5141 8.16435 14.6508 8.29394C14.7874 8.42353 16.1536 7.90516 16.1536 7.90516C16.1536 7.90516 15.4705 9.33069 15.6071 9.46028C15.7437 9.58987 16.2902 9.71947 16.2902 9.71947C16.2902 9.71947 13.831 11.4042 13.831 11.6634C13.831 11.9226 14.1043 12.4409 14.1043 12.4409L12.055 12.1817C11.8902 12.1369 11.8331 12.1709 11.7817 12.3113L11.9184 14.3848Z" fill="#D80027"/>
<rect x="18" width="6" height="18" fill="#D80027"/>
<rect x="-6.10352e-05" width="6" height="19" fill="#D80027"/>
</g>
<defs>
<clipPath id="clip0_1_6574">
<rect width="24" height="18" rx="2" fill="white"/>
</clipPath>
</defs>
</svg>
