<svg width="24" height="24" viewBox="0 0 24 24" fill="none" xmlns="http://www.w3.org/2000/svg">
<g clip-path="url(#clip0_1_1585)">
<path d="M12 24C18.6274 24 24 18.6274 24 12C24 5.37258 18.6274 0 12 0C5.37258 0 0 5.37258 0 12C0 18.6274 5.37258 24 12 24Z" fill="white"/>
<path d="M24.0014 12C24.0014 7.24245 21.2327 3.1317 17.2188 1.1907V22.8092C21.2327 20.8683 24.0014 16.7575 24.0014 12Z" fill="#D80027"/>
<path d="M0 12C0 16.7575 2.76867 20.8683 6.78263 22.8093V1.1907C2.76867 3.1317 0 7.24245 0 12Z" fill="#D80027"/>
<path d="M14.0851 13.5653L16.172 12.5218L15.1286 12.0001V10.9566L13.0416 12.0001L14.0851 9.91313H13.0416L11.9981 8.34793L10.9546 9.91313H9.91114L10.9546 12.0001L8.86766 10.9566V12.0001L7.82422 12.5218L9.91114 13.5653L9.38942 14.6088H11.4764V16.174H12.5198V14.6088H14.6068L14.0851 13.5653Z" fill="#D80027"/>
</g>
<defs>
<clipPath id="clip0_1_1585">
<rect width="24" height="24" fill="white"/>
</clipPath>
</defs>
</svg>
