<svg width="24" height="24" viewBox="0 0 24 24" fill="none" xmlns="http://www.w3.org/2000/svg">
<g clip-path="url(#clip0_1_2293)">
<path d="M12 24C18.6274 24 24 18.6274 24 12C24 5.37258 18.6274 0 12 0C5.37258 0 0 5.37258 0 12C0 18.6274 5.37258 24 12 24Z" fill="#1A47B8"/>
<path d="M12.0013 4.6958L12.3898 5.89153H13.647L12.6298 6.63052L13.0184 7.82625L12.0013 7.08722L10.9841 7.82625L11.3726 6.63052L10.3555 5.89153H11.6127L12.0013 4.6958Z" fill="#FFDA44"/>
<path d="M6.83377 6.83528L7.95408 7.40603L8.84306 6.51709L8.64633 7.75881L9.76659 8.32961L8.52483 8.52629L8.32814 9.76811L7.75734 8.64784L6.51562 8.84457L7.40461 7.95559L6.83377 6.83528Z" fill="#FFDA44"/>
<path d="M4.69531 12.0002L5.89105 11.6116V10.3544L6.62998 11.3716L7.82577 10.983L7.08669 12.0002L7.82577 13.0173L6.62998 12.6288L5.89105 13.6459V12.3887L4.69531 12.0002Z" fill="#FFDA44"/>
<path d="M6.83377 17.1652L7.40456 16.0449L6.51562 15.1559L7.75739 15.3527L8.32809 14.2324L8.52483 15.4742L9.76655 15.6709L8.64642 16.2417L8.84306 17.4834L7.95408 16.5944L6.83377 17.1652Z" fill="#FFDA44"/>
<path d="M12.0013 19.3047L11.6127 18.1089H10.3555L11.3727 17.37L10.9841 16.1743L12.0013 16.9133L13.0184 16.1743L12.6298 17.37L13.647 18.1089H12.3897L12.0013 19.3047Z" fill="#FFDA44"/>
<path d="M17.1632 17.1652L16.0429 16.5945L15.1539 17.4834L15.3506 16.2416L14.2305 15.6709L15.4722 15.4742L15.6689 14.2324L16.2396 15.3527L17.4813 15.1559L16.5924 16.045L17.1632 17.1652Z" fill="#FFDA44"/>
<path d="M19.3022 12.0003L18.1065 12.3888V13.6461L17.3675 12.6289L16.1719 13.0174L16.9109 12.0003L16.1719 10.9831L17.3676 11.3717L18.1065 10.3545V11.6118L19.3022 12.0003Z" fill="#FFDA44"/>
<path d="M17.1632 6.83523L16.5924 7.95554L17.4814 8.84453L16.2396 8.64775L15.6689 9.76801L15.4722 8.52625L14.2305 8.32951L15.3506 7.75876L15.1539 6.51709L16.043 7.40603L17.1632 6.83523Z" fill="#FFDA44"/>
</g>
<defs>
<clipPath id="clip0_1_2293">
<rect width="24" height="24" fill="white"/>
</clipPath>
</defs>
</svg>
