<svg width="22" height="17" viewBox="0 0 22 17" fill="none" xmlns="http://www.w3.org/2000/svg">
<path d="M10.1858 5.96735C9.90826 5.68977 9.90826 5.23977 10.1858 4.9622C10.4634 4.68462 10.9134 4.68462 11.1909 4.9622L13.5364 7.30757L15.8817 4.9622C16.1592 4.68462 16.6092 4.68462 16.8868 4.9622C17.1643 5.23972 17.1643 5.68977 16.8868 5.96735L14.5414 8.31266L16.8868 10.658C17.1643 10.9356 17.1643 11.3856 16.8868 11.6631C16.6092 11.9407 16.1592 11.9407 15.8817 11.6631L13.5364 9.31782L11.1909 11.6631C10.9134 11.9407 10.4634 11.9407 10.1859 11.6631C9.90826 11.3856 9.90826 10.9356 10.1859 10.658L12.5312 8.31272L10.1858 5.96735Z" fill="#11183C"/>
<path fill-rule="evenodd" clip-rule="evenodd" d="M7.25465 1.09024L0.0322266 8.31266L7.25465 15.5351C7.78782 16.0683 8.51095 16.3678 9.26495 16.3678H18.9854C20.5555 16.3678 21.8284 15.0949 21.8284 13.5248V3.10054C21.8284 1.53041 20.5555 0.257568 18.9854 0.257568H9.26495C8.51095 0.257568 7.78782 0.557124 7.25465 1.09024ZM18.9854 15.1358H9.26495C8.83763 15.1358 8.42789 14.9661 8.12573 14.664L1.7745 8.31266L8.12573 1.96138C8.42789 1.65927 8.83763 1.48951 9.26495 1.48951H18.9854C19.8751 1.48951 20.5964 2.21078 20.5964 3.10054V13.5248C20.5964 14.4145 19.8751 15.1358 18.9854 15.1358Z" fill="#11183C"/>
</svg>
