<svg width="24" height="18" viewBox="0 0 24 18" fill="none" xmlns="http://www.w3.org/2000/svg">
<g clip-path="url(#clip0_1_3560)">
<path d="M21.7144 0H2.28584C1.02347 0 0.00012207 1.07452 0.00012207 2.4V15.6C0.00012207 16.9255 1.02347 18 2.28584 18H21.7144C22.9768 18 24.0001 16.9255 24.0001 15.6V2.4C24.0001 1.07452 22.9768 0 21.7144 0Z" fill="#1A47B8"/>
<path fill-rule="evenodd" clip-rule="evenodd" d="M12.0012 2.25L12.3026 2.94723L13.0387 3.02736L12.4888 3.53839L12.6424 4.28514L12.0012 3.90375L11.36 4.28514L11.5136 3.53839L10.9637 3.02736L11.6998 2.94723L12.0012 2.25ZM6.84553 8.57223L6.54415 7.875L6.24278 8.57223L5.50664 8.65236L6.05652 9.16339L5.90293 9.91014L6.54415 9.52875L7.18537 9.91014L7.03179 9.16339L7.58167 8.65236L6.84553 8.57223ZM17.7557 8.57223L17.4543 7.875L17.1529 8.57223L16.4168 8.65236L16.9667 9.16339L16.8131 9.91014L17.4543 9.52875L18.0955 9.91014L17.9419 9.16339L18.4918 8.65236L17.7557 8.57223ZM12.3026 14.1972L12.0012 13.5L11.6998 14.1972L10.9637 14.2774L11.5136 14.7884L11.36 15.5351L12.0012 15.1537L12.6424 15.5351L12.4888 14.7884L13.0387 14.2774L12.3026 14.1972ZM8.18087 11.8125L8.48225 12.5097L9.21839 12.5899L8.6685 13.1009L8.82209 13.8476L8.18087 13.4662L7.53965 13.8476L7.69324 13.1009L7.14336 12.5899L7.8795 12.5097L8.18087 11.8125ZM8.48225 4.63473L8.18087 3.9375L7.8795 4.63473L7.14336 4.71486L7.69324 5.22589L7.53965 5.97264L8.18087 5.59125L8.82209 5.97264L8.6685 5.22589L9.21839 4.71486L8.48225 4.63473ZM15.8176 11.8125L16.119 12.5097L16.8551 12.5899L16.3052 13.1009L16.4588 13.8476L15.8176 13.4662L15.1764 13.8476L15.33 13.1009L14.7801 12.5899L15.5162 12.5097L15.8176 11.8125ZM16.119 4.63473L15.8176 3.9375L15.5162 4.63473L14.7801 4.71486L15.33 5.22589L15.1764 5.97264L15.8176 5.59125L16.4588 5.97264L16.3052 5.22589L16.8551 4.71486L16.119 4.63473Z" fill="#FFFF00"/>
</g>
<defs>
<clipPath id="clip0_1_3560">
<rect width="24" height="18" rx="2" fill="white"/>
</clipPath>
</defs>
</svg>
