<svg width="24" height="24" viewBox="0 0 24 24" fill="none" xmlns="http://www.w3.org/2000/svg">
<g clip-path="url(#clip0_1_2589)">
<path d="M12 24C18.6274 24 24 18.6274 24 12C24 5.37258 18.6274 0 12 0C5.37258 0 0 5.37258 0 12C0 18.6274 5.37258 24 12 24Z" fill="#FFDA44"/>
<path d="M9.39073 10.4348H23.8978C23.1308 4.54697 18.0963 0 11.9994 0C11.1034 0 10.2306 0.0990469 9.39069 0.285234V10.4348H9.39073Z" fill="#1A47B8"/>
<path d="M6.2609 10.4348V1.45911C2.96587 3.25695 0.607077 6.55465 0.101624 10.4348H6.2609V10.4348Z" fill="#1A47B8"/>
<path d="M6.26086 13.5652H0.101624C0.607077 17.4454 2.96587 20.7431 6.2609 22.5409L6.26086 13.5652Z" fill="#1A47B8"/>
<path d="M9.39069 13.5655V23.715C10.2306 23.9012 11.1034 24.0002 11.9994 24.0002C18.0963 24.0002 23.1308 19.4533 23.8978 13.5654H9.39069V13.5655Z" fill="#1A47B8"/>
</g>
<defs>
<clipPath id="clip0_1_2589">
<rect width="24" height="24" fill="white"/>
</clipPath>
</defs>
</svg>
